<?xml version="1.0" encoding="UTF-8"?>
<svg id="Layer_1" data-name="Layer 1" xmlns="http://www.w3.org/2000/svg" viewBox="0 0 1600 950">
  <defs>
    <style>
      .cls-1 {
        fill: #fff;
        stroke-width: 0px;
      }
    </style>
  </defs>
  <polygon class="cls-1" points="296.2 75.61 325.37 45.4 374.35 94.37 374.35 439.29 252.43 473.67 188.87 408.02 218.04 383.02 281.61 445.54 331.63 431.99 330.58 108.96 296.2 75.61"/>
  <polygon class="cls-1" points="330.32 40.19 359.5 9.45 423.85 73.79 423.07 454.66 216.22 511.45 150.83 444.5 184.96 413.24 250.61 482.01 384.51 442.67 385.03 90.2 330.32 40.19"/>
  <polygon class="cls-1" points="459.8 163.15 459.8 345.5 527.53 410.11 696.34 364.26 696.34 342.38 553.58 380.93 502.52 330.39 503.04 173.05 598.91 144.39 654.66 197.01 513.98 325.18 557.23 370.51 696.34 335.08 696.34 313.72 587.97 344.98 555.66 310.59 696.34 183.47 631.21 116.25 459.8 163.15"/>
  <path class="cls-1" d="M597.35,153.77l-87.01,22.92v137.55l130.25-117.23-43.24-43.24ZM550.98,184.51l15.11-3.13,33.35,30.74-48.45,42.2v-69.82Z"/>
  <polygon class="cls-1" points="761.47 403.86 722.39 366.86 722.39 111.04 685.4 75.61 713.01 45.4 761.47 93.33 761.47 403.86"/>
  <polygon class="cls-1" points="718.22 39.66 772.41 92.29 772.41 209 871.4 153.77 928.19 209 958.93 181.38 892.76 116.25 812.01 164.71 810.44 68.32 748.96 9.45 718.22 39.66"/>
  <path class="cls-1" d="M868.8,161.58l-97.43,59.4v110.98l106.29-107.33,40.64,38.56v152.14l40.64-21.88v-143.8l-90.14-88.05ZM810.44,265.79v-47.93l35.95-22.92,18.76,20.32-54.71,50.54Z"/>
  <polygon class="cls-1" points="771.37 410.11 814.61 393.44 814.61 327.27 861.5 278.29 869.32 278.29 869.32 446.06 910.48 421.05 910.48 265.79 877.65 234 771.37 341.86 771.37 410.11"/>
  <polygon class="cls-1" points="802.63 801.13 848.74 790.97 848.74 607.31 783.87 544.01 848.74 483.05 783.87 418.18 613.5 463.51 613.5 764.4 653.36 801.13 654.14 467.42 751.83 446.06 810.44 496.34 741.67 561.99 801.85 626.07 802.63 801.13"/>
  <polygon class="cls-1" points="660.39 801.13 704.94 790.19 704.94 640.14 734.64 624.51 761.47 646.39 761.47 765.97 794.03 796.44 794.03 630.76 735.42 569.8 660.39 641.7 660.39 801.13"/>
  <path class="cls-1" d="M750.27,455.7l-89.88,24.23v145.36l133.64-130.52-43.77-39.08ZM704.16,483.05h14.07l34.39,34.39-48.45,40.64v-75.03Z"/>
  <polygon class="cls-1" points="1047.64 148.56 1001.53 158.72 1001.53 342.38 1066.39 405.68 1001.53 466.64 1066.39 531.51 1236.77 486.18 1236.77 185.29 1196.91 148.56 1196.13 482.27 1098.44 503.63 1039.82 453.35 1108.6 387.71 1048.42 323.62 1047.64 148.56"/>
  <polygon class="cls-1" points="1189.88 148.56 1145.33 159.5 1145.33 309.55 1115.63 325.18 1088.8 303.3 1088.8 183.73 1056.23 153.25 1056.23 318.93 1114.85 379.89 1189.88 307.99 1189.88 148.56"/>
  <path class="cls-1" d="M1056.23,454.92l43.77,39.08,89.88-24.23v-145.36l-133.64,130.52ZM1146.11,466.64h-14.07l-34.39-34.39,48.45-40.64v75.03Z"/>
  <polygon class="cls-1" points="1363.77 478.88 1336.15 509.1 1271.02 446.06 1271.02 109.22 1231.95 74.05 1263.21 45.4 1310.62 93.33 1311.66 431.47 1363.77 478.88"/>
  <polygon class="cls-1" points="1269.98 39.66 1297.86 12.05 1361.68 73.53 1361.68 409.2 1397.63 446.06 1371.06 474.19 1319.48 429.13 1320.52 91.25 1269.98 39.66"/>
  <polygon class="cls-1" points="1495.58 478.88 1467.97 509.1 1402.84 446.06 1402.84 109.22 1363.77 74.05 1395.03 45.4 1442.44 93.33 1443.48 431.47 1495.58 478.88"/>
  <polygon class="cls-1" points="1401.8 39.66 1429.67 12.05 1493.5 73.53 1493.5 409.2 1529.45 446.06 1502.88 474.19 1451.3 429.13 1452.34 91.25 1401.8 39.66"/>
  <polygon class="cls-1" points="62.26 770.65 128.43 836.82 299.32 790.97 299.32 609.66 233.67 545.57 62.26 590.9 62.26 612.79 202.93 574.23 257.12 625.29 259.2 780.03 156.56 808.69 104.98 756.07 246.18 628.42 200.33 581.52 62.26 620.08 62.26 639.88 172.72 609.66 203.98 640.92 62.26 770.65"/>
  <path class="cls-1" d="M119.05,755.02l40.64,42.72,88.05-21.36v-137.03l-128.69,115.67ZM209.19,773.78h-15.63l-34.39-34.39,50.02-42.2v76.59Z"/>
  <polygon class="cls-1" points="339.44 558.08 380.08 545.57 380.08 862.87 430.62 912.37 403.01 942.07 339.44 880.59 339.44 558.08"/>
  <polygon class="cls-1" points="388.94 551.31 388.94 597.15 476.99 574.23 530.13 622.16 530.13 753.46 388.94 793.06 388.94 859.75 436.35 908.72 466.57 877.46 430.62 841.51 430.62 797.75 572.86 759.71 572.86 606.01 509.29 545.57 411.86 572.15 388.94 551.31"/>
  <path class="cls-1" d="M474.91,583.09l-85.97,20.84v178.19l133.9-38.29v-115.93l-47.93-44.81ZM483.24,738.35l-52.62,13.55v-138.07l15.11-4.17,37.51,35.43v93.26Z"/>
  <polygon class="cls-1" points="949.56 942.07 885.47 877.98 885.47 542.97 848.74 509.1 878.7 483.05 925.07 527.34 924.55 862.35 976.65 911.85 949.56 942.07"/>
  <polygon class="cls-1" points="884.43 474.19 914.65 446.06 976.65 507.02 976.65 706.57 1066.78 685.47 1066.78 540.49 1021.98 493.99 1056.23 473.67 1103.26 525.78 1103.26 690.94 934.45 737.31 932.88 525.25 884.43 474.19"/>
  <polygon class="cls-1" points="983.42 908.72 934.45 859.75 934.45 747.73 1103.26 700.84 1103.26 861.83 1155.88 911.33 1126.7 942.07 1062.1 880.07 1064.18 732.1 976.65 751.9 976.65 844.12 1012.6 877.98 983.42 908.72"/>
  <polygon class="cls-1" points="1089.06 446.06 1153.14 510.14 1153.14 845.16 1189.88 879.03 1159.92 905.08 1113.55 860.79 1114.07 525.78 1061.97 476.28 1089.06 446.06"/>
  <polygon class="cls-1" points="1312.18 612.79 1285.61 625.29 1285.61 695.63 1329.38 733.14 1422.64 710.22 1444.52 733.14 1476.83 728.45 1441.4 693.02 1347.61 716.47 1311.66 684.69 1312.18 612.79"/>
  <polygon class="cls-1" points="1483.6 724.8 1515.9 719.07 1471.1 675.57 1471.1 607.05 1495.58 600.28 1495.58 589.34 1446.09 602.89 1446.09 686.77 1483.6 724.8"/>
  <polygon class="cls-1" points="1495.58 566.94 1495.58 582.05 1437.75 598.2 1437.75 680 1323.13 563.29 1323.13 541.41 1378.88 509.1 1416.39 537.76 1397.63 557.56 1366.89 528.38 1346.05 538.8 1345.53 553.39 1414.3 616.43 1415.35 591.68 1495.58 566.94"/>
  <path class="cls-1" d="M1312.71,538.8l70.86-40.12,38.56,35.43,17.71-16.67-42.2-40.12-109.41,60.96v34.91l32.3,31.26,2.6,77.63,28.14,26.05,81.8-21.88-118.27-118.79-2.08-28.66ZM1345.53,631.02l52.1,56.27-30.22,6.77-21.88-22.92v-40.12Z"/>
</svg>