<?xml version="1.0" encoding="UTF-8"?>
<svg id="Layer_1" data-name="Layer 1" xmlns="http://www.w3.org/2000/svg" viewBox="0 0 1920 1080">
  <defs>
    <style>
      .cls-1 {
        stroke-width: 0px;
      }
    </style>
  </defs>
  <polygon class="cls-1" points="378.75 82.61 411.9 48.26 467.57 103.92 467.57 495.92 329.01 535 256.77 460.39 289.92 431.97 362.17 503.03 419.01 487.63 417.83 120.5 378.75 82.61"/>
  <polygon class="cls-1" points="417.53 42.34 450.69 7.41 523.82 80.54 522.93 513.39 287.85 577.93 213.54 501.84 252.32 466.31 326.93 544.47 479.11 499.77 479.7 99.19 417.53 42.34"/>
  <polygon class="cls-1" points="564.68 182.09 564.68 389.33 641.65 462.76 833.51 410.65 833.51 385.78 671.26 429.6 613.23 372.16 613.82 193.34 722.78 160.77 786.14 220.58 626.26 366.24 675.41 417.76 833.51 377.49 833.51 353.21 710.34 388.74 673.63 349.66 833.51 205.18 759.49 128.79 564.68 182.09"/>
  <path class="cls-1" d="M721,171.43l-98.89,26.05v156.32l148.03-133.23-49.15-49.15ZM668.3,206.36l17.17-3.55,37.9,34.94-55.07,47.96v-79.35Z"/>
  <polygon class="cls-1" points="907.52 455.65 863.11 413.61 863.11 122.87 821.07 82.61 852.45 48.26 907.52 102.74 907.52 455.65"/>
  <polygon class="cls-1" points="858.38 41.75 919.96 101.56 919.96 234.2 1032.46 171.43 1097.01 234.2 1131.94 202.81 1056.74 128.79 964.96 183.86 963.18 74.32 893.31 7.41 858.38 41.75"/>
  <path class="cls-1" d="M1029.5,180.31l-110.73,67.5v126.13l120.8-121.98,46.19,43.82v172.9l46.19-24.87v-163.43l-102.44-100.07ZM963.18,298.74v-54.48l40.86-26.05,21.32,23.09-62.17,57.44Z"/>
  <polygon class="cls-1" points="918.77 462.76 967.92 443.81 967.92 368.61 1021.21 312.95 1030.1 312.95 1030.1 503.62 1076.87 475.19 1076.87 298.74 1039.57 262.62 918.77 385.19 918.77 462.76"/>
  <polygon class="cls-1" points="954.3 907.16 1006.71 895.61 1006.71 686.88 932.99 614.94 1006.71 545.66 932.99 471.94 739.36 523.45 739.36 865.41 784.66 907.16 785.54 527.89 896.57 503.62 963.18 560.76 885.02 635.37 953.41 708.2 954.3 907.16"/>
  <polygon class="cls-1" points="792.65 907.16 843.28 894.72 843.28 724.19 877.03 706.42 907.52 731.29 907.52 867.19 944.53 901.83 944.53 713.53 877.92 644.25 792.65 725.96 792.65 907.16"/>
  <path class="cls-1" d="M894.79,514.57l-102.14,27.53v165.21l151.88-148.33-49.74-44.41ZM842.39,545.66h15.99l39.08,39.08-55.07,46.19v-85.27Z"/>
  <polygon class="cls-1" points="1232.75 165.51 1180.35 177.05 1180.35 385.78 1254.07 457.73 1180.35 527.01 1254.07 600.73 1447.7 549.21 1447.7 207.25 1402.4 165.51 1401.51 544.77 1290.49 569.05 1223.87 511.91 1302.03 437.3 1233.64 364.47 1232.75 165.51"/>
  <polygon class="cls-1" points="1394.41 165.51 1343.78 177.94 1343.78 348.48 1310.03 366.24 1279.53 341.37 1279.53 205.48 1242.53 170.84 1242.53 359.14 1309.14 428.42 1394.41 346.7 1394.41 165.51"/>
  <path class="cls-1" d="M1242.53,513.68l49.74,44.41,102.14-27.53v-165.21l-151.88,148.33ZM1344.67,527.01h-15.99l-39.08-39.08,55.07-46.19v85.27Z"/>
  <polygon class="cls-1" points="1592.03 540.92 1560.65 575.27 1486.63 503.62 1486.63 120.8 1442.22 80.83 1477.75 48.26 1531.64 102.74 1532.82 487.04 1592.03 540.92"/>
  <polygon class="cls-1" points="1485.45 41.75 1517.13 10.37 1589.67 80.24 1589.67 461.72 1630.52 503.62 1600.32 535.59 1541.7 484.37 1542.89 100.37 1485.45 41.75"/>
  <polygon class="cls-1" points="1741.84 540.92 1710.46 575.27 1636.44 503.62 1636.44 120.8 1592.03 80.83 1627.56 48.26 1681.45 102.74 1682.63 487.04 1741.84 540.92"/>
  <polygon class="cls-1" points="1635.26 41.75 1666.94 10.37 1739.48 80.24 1739.48 461.72 1780.33 503.62 1750.13 535.59 1691.51 484.37 1692.7 100.37 1635.26 41.75"/>
  <polygon class="cls-1" points="112.88 872.52 188.08 947.72 382.3 895.61 382.3 689.55 307.69 616.72 112.88 668.23 112.88 693.1 272.75 649.28 334.34 707.31 336.7 883.18 220.05 915.74 161.43 855.94 321.9 710.87 269.79 657.57 112.88 701.39 112.88 723.89 238.41 689.55 273.94 725.08 112.88 872.52"/>
  <path class="cls-1" d="M177.42,854.75l46.19,48.56,100.07-24.28v-155.73l-146.26,131.45ZM279.86,876.07h-17.76l-39.08-39.08,56.85-47.96v87.04Z"/>
  <polygon class="cls-1" points="427.89 630.93 474.08 616.72 474.08 977.33 531.52 1033.58 500.13 1067.33 427.89 997.46 427.89 630.93"/>
  <polygon class="cls-1" points="484.15 623.23 484.15 675.34 584.22 649.28 644.61 703.76 644.61 852.98 484.15 897.98 484.15 973.77 538.03 1029.43 572.37 993.91 531.52 953.05 531.52 903.31 693.17 860.08 693.17 685.4 620.93 616.72 510.2 646.91 484.15 623.23"/>
  <path class="cls-1" d="M581.85,659.35l-97.7,23.69v202.51l152.18-43.52v-131.75l-54.48-50.92ZM591.32,835.81l-59.81,15.4v-156.92l17.17-4.74,42.63,40.27v105.99Z"/>
  <polygon class="cls-1" points="1121.28 1067.33 1048.45 994.5 1048.45 613.75 1006.71 575.27 1040.75 545.66 1093.45 595.99 1092.86 976.73 1152.08 1032.99 1121.28 1067.33"/>
  <polygon class="cls-1" points="1047.27 535.59 1081.61 503.62 1152.08 572.9 1152.08 799.69 1254.52 775.7 1254.52 610.94 1203.59 558.09 1242.53 535 1295.97 594.21 1295.97 781.92 1104.11 834.62 1102.34 593.62 1047.27 535.59"/>
  <polygon class="cls-1" points="1159.77 1029.43 1104.11 973.77 1104.11 846.46 1295.97 793.17 1295.97 976.14 1355.77 1032.4 1322.61 1067.33 1249.19 996.87 1251.56 828.7 1152.08 851.2 1152.08 956.01 1192.93 994.5 1159.77 1029.43"/>
  <polygon class="cls-1" points="1279.83 503.62 1352.66 576.45 1352.66 957.19 1394.41 995.68 1360.36 1025.29 1307.66 974.96 1308.25 594.21 1249.04 537.96 1279.83 503.62"/>
  <polygon class="cls-1" points="1533.41 693.1 1503.21 707.31 1503.21 787.25 1552.95 829.88 1658.95 803.83 1683.82 829.88 1720.53 824.56 1680.26 784.29 1573.68 810.94 1532.82 774.82 1533.41 693.1"/>
  <polygon class="cls-1" points="1728.23 820.41 1764.94 813.9 1714.01 764.45 1714.01 686.59 1741.84 678.89 1741.84 666.45 1685.59 681.85 1685.59 777.18 1728.23 820.41"/>
  <polygon class="cls-1" points="1741.84 640.99 1741.84 658.17 1676.12 676.52 1676.12 769.49 1545.85 636.85 1545.85 611.98 1609.21 575.27 1651.84 607.83 1630.52 630.33 1595.59 597.17 1571.9 609.02 1571.31 625.6 1649.47 697.25 1650.66 669.12 1741.84 640.99"/>
  <path class="cls-1" d="M1534,609.02l80.53-45.59,43.82,40.27,20.13-18.95-47.96-45.59-124.35,69.28v39.67l36.71,35.53,2.96,88.23,31.98,29.61,92.97-24.87-134.41-135.01-2.37-32.57ZM1571.31,713.83l59.21,63.95-34.34,7.7-24.87-26.05v-45.59Z"/>
</svg>