<?xml version="1.0" encoding="UTF-8"?>
<svg id="Layer_1" data-name="Layer 1" xmlns="http://www.w3.org/2000/svg" viewBox="0 0 1920 1080">
  <defs>
    <style>
      .cls-1 {
        fill: #fff;
        stroke-width: 0px;
      }
    </style>
  </defs>
  <polygon class="cls-1" points="392.14 85.24 425.3 50.89 480.96 106.56 480.96 498.55 342.4 537.63 270.16 463.02 303.32 434.6 375.56 505.66 432.41 490.26 431.22 123.14 392.14 85.24"/>
  <polygon class="cls-1" points="430.93 44.97 464.09 10.04 537.21 83.17 536.33 516.02 301.25 580.56 226.93 504.47 265.72 468.94 340.33 547.11 492.51 502.4 493.1 101.82 430.93 44.97"/>
  <polygon class="cls-1" points="578.07 184.72 578.07 391.97 655.05 465.39 846.9 413.28 846.9 388.41 684.66 432.23 626.63 374.79 627.22 195.97 736.17 163.4 799.53 223.21 639.65 368.87 688.8 420.39 846.9 380.12 846.9 355.85 723.74 391.37 687.02 352.29 846.9 207.81 772.88 131.43 578.07 184.72"/>
  <path class="cls-1" d="M734.4,174.06l-98.89,26.05v156.32l148.03-133.23-49.15-49.15ZM681.7,209l17.17-3.55,37.9,34.94-55.07,47.96v-79.35Z"/>
  <polygon class="cls-1" points="920.92 458.29 876.51 416.24 876.51 125.5 834.47 85.24 865.85 50.89 920.92 105.37 920.92 458.29"/>
  <polygon class="cls-1" points="871.77 44.38 933.35 104.19 933.35 236.83 1045.86 174.06 1110.4 236.83 1145.34 205.44 1070.14 131.43 978.36 186.49 976.58 76.95 906.71 10.04 871.77 44.38"/>
  <path class="cls-1" d="M1042.9,182.94l-110.73,67.5v126.13l120.8-121.98,46.19,43.82v172.9l46.19-24.87v-163.43l-102.44-100.07ZM976.58,301.37v-54.48l40.86-26.05,21.32,23.09-62.17,57.44Z"/>
  <polygon class="cls-1" points="932.17 465.39 981.32 446.44 981.32 371.24 1034.61 315.58 1043.49 315.58 1043.49 506.25 1090.27 477.83 1090.27 301.37 1052.97 265.25 932.17 387.82 932.17 465.39"/>
  <polygon class="cls-1" points="967.7 909.79 1020.1 898.24 1020.1 689.51 946.38 617.57 1020.1 548.29 946.38 474.57 752.75 526.08 752.75 868.04 798.05 909.79 798.94 530.53 909.96 506.25 976.58 563.39 898.42 638 966.81 710.83 967.7 909.79"/>
  <polygon class="cls-1" points="806.04 909.79 856.67 897.35 856.67 726.82 890.42 709.06 920.92 733.92 920.92 869.82 957.93 904.46 957.93 716.16 891.31 646.88 806.04 728.6 806.04 909.79"/>
  <path class="cls-1" d="M908.19,517.2l-102.14,27.53v165.21l151.88-148.33-49.74-44.41ZM855.78,548.29h15.99l39.08,39.08-55.07,46.19v-85.27Z"/>
  <polygon class="cls-1" points="1246.15 168.14 1193.75 179.68 1193.75 388.41 1267.47 460.36 1193.75 529.64 1267.47 603.36 1461.1 551.84 1461.1 209.88 1415.8 168.14 1414.91 547.4 1303.88 571.68 1237.27 514.54 1315.43 439.93 1247.04 367.1 1246.15 168.14"/>
  <polygon class="cls-1" points="1407.8 168.14 1357.18 180.57 1357.18 351.11 1323.42 368.87 1292.93 344 1292.93 208.11 1255.92 173.47 1255.92 361.77 1322.54 431.05 1407.8 349.33 1407.8 168.14"/>
  <path class="cls-1" d="M1255.92,516.31l49.74,44.41,102.14-27.53v-165.21l-151.88,148.33ZM1358.06,529.64h-15.99l-39.08-39.08,55.07-46.19v85.27Z"/>
  <polygon class="cls-1" points="1605.43 543.55 1574.05 577.9 1500.03 506.25 1500.03 123.43 1455.62 83.46 1491.15 50.89 1545.03 105.37 1546.22 489.67 1605.43 543.55"/>
  <polygon class="cls-1" points="1498.84 44.38 1530.52 13 1603.06 82.87 1603.06 464.35 1643.92 506.25 1613.72 538.22 1555.1 487 1556.28 103 1498.84 44.38"/>
  <polygon class="cls-1" points="1755.24 543.55 1723.86 577.9 1649.84 506.25 1649.84 123.43 1605.43 83.46 1640.96 50.89 1694.84 105.37 1696.03 489.67 1755.24 543.55"/>
  <polygon class="cls-1" points="1648.66 44.38 1680.33 13 1752.87 82.87 1752.87 464.35 1793.73 506.25 1763.53 538.22 1704.91 487 1706.09 103 1648.66 44.38"/>
  <polygon class="cls-1" points="126.27 875.15 201.47 950.35 395.69 898.24 395.69 692.18 321.08 619.35 126.27 670.86 126.27 695.73 286.15 651.91 347.73 709.94 350.1 885.81 233.45 918.38 174.83 858.57 335.3 713.5 283.19 660.2 126.27 704.02 126.27 726.52 251.8 692.18 287.33 727.71 126.27 875.15"/>
  <path class="cls-1" d="M190.81,857.39l46.19,48.56,100.07-24.28v-155.73l-146.26,131.45ZM293.25,878.7h-17.76l-39.08-39.08,56.85-47.96v87.04Z"/>
  <polygon class="cls-1" points="441.29 633.56 487.47 619.35 487.47 979.96 544.91 1036.21 513.53 1069.96 441.29 1000.09 441.29 633.56"/>
  <polygon class="cls-1" points="497.54 625.86 497.54 677.97 597.61 651.91 658.01 706.39 658.01 855.61 497.54 900.61 497.54 976.4 551.43 1032.07 585.77 996.54 544.91 955.68 544.91 905.94 706.57 862.71 706.57 688.03 634.32 619.35 523.6 649.55 497.54 625.86"/>
  <path class="cls-1" d="M595.24,661.98l-97.7,23.69v202.51l152.18-43.52v-131.75l-54.48-50.92ZM604.72,838.44l-59.81,15.4v-156.92l17.17-4.74,42.63,40.27v105.99Z"/>
  <polygon class="cls-1" points="1134.68 1069.96 1061.85 997.13 1061.85 616.39 1020.1 577.9 1054.15 548.29 1106.85 598.62 1106.26 979.37 1165.47 1035.62 1134.68 1069.96"/>
  <polygon class="cls-1" points="1060.66 538.22 1095.01 506.25 1165.47 575.53 1165.47 802.32 1267.91 778.34 1267.91 613.57 1216.99 560.72 1255.92 537.63 1309.36 596.85 1309.36 784.55 1117.51 837.25 1115.73 596.25 1060.66 538.22"/>
  <polygon class="cls-1" points="1173.17 1032.07 1117.51 976.4 1117.51 849.1 1309.36 795.8 1309.36 978.77 1369.17 1035.03 1336.01 1069.96 1262.58 999.5 1264.95 831.33 1165.47 853.83 1165.47 958.64 1206.33 997.13 1173.17 1032.07"/>
  <polygon class="cls-1" points="1293.23 506.25 1366.06 579.08 1366.06 959.83 1407.8 998.31 1373.76 1027.92 1321.06 977.59 1321.65 596.85 1262.43 540.59 1293.23 506.25"/>
  <polygon class="cls-1" points="1546.81 695.73 1516.61 709.94 1516.61 789.88 1566.35 832.52 1672.34 806.46 1697.21 832.52 1733.92 827.19 1693.66 786.92 1587.07 813.57 1546.22 777.45 1546.81 695.73"/>
  <polygon class="cls-1" points="1741.62 823.04 1778.33 816.53 1727.41 767.08 1727.41 689.22 1755.24 681.52 1755.24 669.09 1698.99 684.48 1698.99 779.82 1741.62 823.04"/>
  <polygon class="cls-1" points="1755.24 643.62 1755.24 660.8 1689.51 679.15 1689.51 772.12 1559.24 639.48 1559.24 614.61 1622.6 577.9 1665.24 610.46 1643.92 632.97 1608.98 599.81 1585.3 611.65 1584.7 628.23 1662.87 699.88 1664.05 671.75 1755.24 643.62"/>
  <path class="cls-1" d="M1547.4,611.65l80.53-45.59,43.82,40.27,20.13-18.95-47.96-45.59-124.35,69.28v39.67l36.71,35.53,2.96,88.23,31.98,29.61,92.97-24.87-134.41-135.01-2.37-32.57ZM1584.7,716.46l59.21,63.95-34.34,7.7-24.87-26.05v-45.59Z"/>
</svg>