<?xml version="1.0" encoding="UTF-8"?>
<svg id="Layer_1" data-name="Layer 1" xmlns="http://www.w3.org/2000/svg" viewBox="200 0 1600 950">
  <defs>
    <style>
      .cls-1 {
        fill: #fff;
        stroke-width: 0px;
      }
    </style>
  </defs>
  <polygon class="cls-1" points="392.14 85.24 425.3 50.89 480.96 106.56 480.96 498.55 342.4 537.63 270.16 463.02 303.32 434.6 375.56 505.66 432.41 490.26 431.22 123.14 392.14 85.24"/>
  <polygon class="cls-1" points="430.93 44.97 464.09 10.04 537.21 83.17 536.33 516.02 301.25 580.56 226.93 504.47 265.72 468.94 340.33 547.11 492.51 502.4 493.1 101.82 430.93 44.97"/>
  <polygon class="cls-1" points="578.07 184.72 578.07 391.97 655.05 465.39 846.9 413.28 846.9 388.41 684.66 432.23 626.63 374.79 627.22 195.97 736.17 163.4 799.53 223.21 639.65 368.87 688.8 420.39 846.9 380.12 846.9 355.85 723.74 391.37 687.02 352.29 846.9 207.81 772.88 131.43 578.07 184.72"/>
  <path class="cls-1" d="M734.4,174.06l-98.89,26.05v156.32l148.03-133.23-49.15-49.15ZM681.7,209l17.17-3.55,37.9,34.94-55.07,47.96v-79.35Z"/>
  <polygon class="cls-1" points="920.92 458.29 876.51 416.24 876.51 125.5 834.47 85.24 865.85 50.89 920.92 105.37 920.92 458.29"/>
  <polygon class="cls-1" points="871.77 44.38 933.35 104.19 933.35 236.83 1045.86 174.06 1110.4 236.83 1145.34 205.44 1070.14 131.43 978.36 186.49 976.58 76.95 906.71 10.04 871.77 44.38"/>
  <path class="cls-1" d="M1042.9,182.94l-110.73,67.5v126.13l120.8-121.98,46.19,43.82v172.9l46.19-24.87v-163.43l-102.44-100.07ZM976.58,301.37v-54.48l40.86-26.05,21.32,23.09-62.17,57.44Z"/>
  <polygon class="cls-1" points="932.17 465.39 981.32 446.44 981.32 371.24 1034.61 315.58 1043.49 315.58 1043.49 506.25 1090.27 477.83 1090.27 301.37 1052.97 265.25 932.17 387.82 932.17 465.39"/>
  <polygon class="cls-1" points="967.7 909.79 1020.1 898.24 1020.1 689.51 946.38 617.57 1020.1 548.29 946.38 474.57 752.75 526.08 752.75 868.04 798.05 909.79 798.94 530.53 909.96 506.25 976.58 563.39 898.42 638 966.81 710.83 967.7 909.79"/>
  <polygon class="cls-1" points="806.04 909.79 856.67 897.35 856.67 726.82 890.42 709.06 920.92 733.92 920.92 869.82 957.93 904.46 957.93 716.16 891.31 646.88 806.04 728.6 806.04 909.79"/>
  <path class="cls-1" d="M908.19,517.2l-102.14,27.53v165.21l151.88-148.33-49.74-44.41ZM855.78,548.29h15.99l39.08,39.08-55.07,46.19v-85.27Z"/>
  <polygon class="cls-1" points="1246.15 168.14 1193.75 179.68 1193.75 388.41 1267.47 460.36 1193.75 529.64 1267.47 603.36 1461.1 551.84 1461.1 209.88 1415.8 168.14 1414.91 547.4 1303.88 571.68 1237.27 514.54 1315.43 439.93 1247.04 367.1 1246.15 168.14"/>
  <polygon class="cls-1" points="1407.8 168.14 1357.18 180.57 1357.18 351.11 1323.42 368.87 1292.93 344 1292.93 208.11 1255.92 173.47 1255.92 361.77 1322.54 431.05 1407.8 349.33 1407.8 168.14"/>
  <path class="cls-1" d="M1255.92,516.31l49.74,44.41,102.14-27.53v-165.21l-151.88,148.33ZM1358.06,529.64h-15.99l-39.08-39.08,55.07-46.19v85.27Z"/>
  <polygon class="cls-1" points="1605.43 543.55 1574.05 577.9 1500.03 506.25 1500.03 123.43 1455.62 83.46 1491.15 50.89 1545.03 105.37 1546.22 489.67 1605.43 543.55"/>
  <polygon class="cls-1" points="1498.84 44.38 1530.52 13 1603.06 82.87 1603.06 464.35 1643.92 506.25 1613.72 538.22 1555.1 487 1556.28 103 1498.84 44.38"/>
  <polygon class="cls-1" points="1755.24 543.55 1723.86 577.9 1649.84 506.25 1649.84 123.43 1605.43 83.46 1640.96 50.89 1694.84 105.37 1696.03 489.67 1755.24 543.55"/>
  <polygon class="cls-1" points="1648.66 44.38 1680.33 13 1752.87 82.87 1752.87 464.35 1793.73 506.25 1763.53 538.22 1704.91 487 1706.09 103 1648.66 44.38"/>
</svg>